<svg xmlns="http://www.w3.org/2000/svg" viewBox="0 0 100 100"><defs><linearGradient id="au-p" x1="0" y1="0" x2="0" y2="1"><stop offset="0" stop-color="#ffffff"/><stop offset="1" stop-color="#f1f2f5"/></linearGradient></defs><path d="M24 8h36l20 20v58a6 6 0 0 1-6 6H24a6 6 0 0 1-6-6V14a6 6 0 0 1 6-6z" fill="url(#au-p)" stroke="#d3d6dc" stroke-width="1.2"/>
     <path d="M60 8v14a6 6 0 0 0 6 6h14" fill="#e8eaee" stroke="#d3d6dc" stroke-width="1.2"/>
     <path d="M43 44l18-4v24a5 4.3 0 1 1-3-3.7V47l-12 2.6V68a5 4.3 0 1 1-3-3.7z" fill="#ff375f"/></svg>