<svg xmlns="http://www.w3.org/2000/svg" viewBox="0 0 24 24"><path fill="#2e3436" fill-rule="evenodd" d="M18 3.7L6 3.7Q4.425 3.7 3.312 4.812Q2.2 5.925 2.2 7.5Q2.2 9.074 3.312 10.187Q4.425 11.3 6 11.3L18 11.3Q21.8 11.3 21.8 7.5Q21.8 3.7 18 3.7ZM3.8 7.5Q3.8 5.3 6 5.3L18 5.3Q20.2 5.3 20.2 7.5Q20.2 8.411 19.555 9.055Q18.911 9.7 18 9.7L6 9.7Q5.088 9.7 4.444 9.055Q3.8 8.411 3.8 7.5ZM19.2 7.5Q19.2 7.583 19.191 7.666Q19.183 7.749 19.167 7.831Q19.151 7.913 19.126 7.993Q19.102 8.073 19.070 8.150Q19.038 8.227 18.999 8.301Q18.959 8.375 18.913 8.444Q18.867 8.513 18.814 8.578Q18.761 8.643 18.702 8.702Q18.643 8.761 18.578 8.814Q18.513 8.867 18.444 8.913Q18.375 8.959 18.301 8.999Q18.227 9.038 18.150 9.070Q18.073 9.102 17.993 9.126Q17.913 9.151 17.831 9.167Q17.749 9.183 17.666 9.191Q17.583 9.2 17.5 9.2Q17.416 9.2 17.333 9.191Q17.250 9.183 17.168 9.167Q17.086 9.151 17.006 9.126Q16.926 9.102 16.849 9.070Q16.772 9.038 16.698 8.999Q16.625 8.959 16.555 8.913Q16.486 8.867 16.421 8.814Q16.357 8.761 16.297 8.702Q16.238 8.643 16.185 8.578Q16.132 8.513 16.086 8.444Q16.040 8.375 16.000 8.301Q15.961 8.227 15.929 8.150Q15.897 8.073 15.873 7.993Q15.849 7.913 15.832 7.831Q15.816 7.749 15.808 7.666Q15.8 7.583 15.8 7.5Q15.8 7.416 15.808 7.333Q15.816 7.250 15.832 7.168Q15.849 7.086 15.873 7.006Q15.897 6.926 15.929 6.849Q15.961 6.772 16.000 6.698Q16.040 6.624 16.086 6.555Q16.132 6.486 16.185 6.421Q16.238 6.356 16.297 6.297Q16.357 6.238 16.421 6.185Q16.486 6.132 16.555 6.086Q16.625 6.040 16.698 6.000Q16.772 5.961 16.849 5.929Q16.926 5.897 17.006 5.873Q17.086 5.848 17.168 5.832Q17.250 5.816 17.333 5.808Q17.416 5.8 17.5 5.8Q17.583 5.8 17.666 5.808Q17.749 5.816 17.831 5.832Q17.913 5.848 17.993 5.873Q18.073 5.897 18.150 5.929Q18.227 5.961 18.301 6.000Q18.375 6.040 18.444 6.086Q18.513 6.132 18.578 6.185Q18.643 6.238 18.702 6.297Q18.761 6.356 18.814 6.421Q18.867 6.486 18.913 6.555Q18.959 6.624 18.999 6.698Q19.038 6.772 19.070 6.849Q19.102 6.926 19.126 7.006Q19.151 7.086 19.167 7.168Q19.183 7.250 19.191 7.333Q19.2 7.416 19.2 7.5ZM18 12.7L6 12.7Q4.425 12.7 3.312 13.813Q2.2 14.926 2.2 16.5Q2.2 18.074 3.312 19.187Q4.425 20.3 6 20.3L18 20.3Q19.574 20.3 20.687 19.187Q21.8 18.074 21.8 16.5Q21.8 12.7 18 12.7ZM4.444 14.944Q5.088 14.3 6 14.3L18 14.3Q18.911 14.3 19.555 14.944Q20.2 15.588 20.2 16.5Q20.2 18.7 18 18.7L6 18.7Q3.8 18.7 3.8 16.5Q3.8 15.588 4.444 14.944ZM8.2 16.5Q8.2 16.583 8.191 16.666Q8.183 16.749 8.167 16.831Q8.151 16.913 8.126 16.993Q8.102 17.073 8.070 17.150Q8.038 17.227 7.999 17.301Q7.959 17.375 7.913 17.444Q7.867 17.513 7.814 17.578Q7.761 17.643 7.702 17.702Q7.643 17.761 7.578 17.814Q7.513 17.867 7.444 17.913Q7.375 17.959 7.301 17.999Q7.227 18.038 7.150 18.070Q7.073 18.102 6.993 18.126Q6.913 18.151 6.831 18.167Q6.749 18.183 6.666 18.191Q6.583 18.2 6.5 18.2Q6.416 18.2 6.333 18.191Q6.250 18.183 6.168 18.167Q6.086 18.151 6.006 18.126Q5.926 18.102 5.849 18.070Q5.772 18.038 5.698 17.999Q5.624 17.959 5.555 17.913Q5.486 17.867 5.421 17.814Q5.356 17.761 5.297 17.702Q5.238 17.643 5.185 17.578Q5.132 17.513 5.086 17.444Q5.040 17.375 5.000 17.301Q4.961 17.227 4.929 17.150Q4.897 17.073 4.873 16.993Q4.848 16.913 4.832 16.831Q4.816 16.749 4.808 16.666Q4.8 16.583 4.8 16.5Q4.8 16.416 4.808 16.333Q4.816 16.250 4.832 16.168Q4.848 16.086 4.873 16.006Q4.897 15.926 4.929 15.849Q4.961 15.772 5.000 15.698Q5.040 15.625 5.086 15.555Q5.132 15.486 5.185 15.421Q5.238 15.357 5.297 15.297Q5.356 15.238 5.421 15.185Q5.486 15.132 5.555 15.086Q5.624 15.040 5.698 15.000Q5.772 14.961 5.849 14.929Q5.926 14.897 6.006 14.873Q6.086 14.849 6.168 14.832Q6.250 14.816 6.333 14.808Q6.416 14.8 6.5 14.8Q6.583 14.8 6.666 14.808Q6.749 14.816 6.831 14.832Q6.913 14.849 6.993 14.873Q7.073 14.897 7.150 14.929Q7.227 14.961 7.301 15.000Q7.375 15.040 7.444 15.086Q7.513 15.132 7.578 15.185Q7.643 15.238 7.702 15.297Q7.761 15.357 7.814 15.421Q7.867 15.486 7.913 15.555Q7.959 15.625 7.999 15.698Q8.038 15.772 8.070 15.849Q8.102 15.926 8.126 16.006Q8.151 16.086 8.167 16.168Q8.183 16.250 8.191 16.333Q8.2 16.416 8.2 16.5Z"/></svg>